 <?xml version="1.0" encoding="UTF-8"?>
<svg width="270px" height="106px" viewBox="0 0 270 106" version="1.1" xmlns="http://www.w3.org/2000/svg" xmlns:xlink="http://www.w3.org/1999/xlink">
    <!-- Generator: Sketch 47.1 (45422) - http://www.bohemiancoding.com/sketch -->
    <title>Path</title>
    <desc>Created with Sketch.</desc>
    <defs></defs>
    <g id="Page-1" stroke="none" stroke-width="1" fill="none" fill-rule="evenodd">
        <g id="Artboard" transform="translate(-181.000000, -323.000000)" fill="#4A90E2">
            <path d="M315.886609,323 C266.333609,323 219.555609,344.852 187.551609,382.948 C177.621609,394.759 179.149609,412.382 190.979609,422.311 C196.213609,426.707 202.584609,428.868 208.937609,428.868 C216.910609,428.868 224.828609,425.478 230.342609,418.902 C251.710609,393.473 282.894609,378.886 315.886609,378.886 C348.878609,378.886 380.063609,393.473 401.430609,418.902 C406.963609,425.497 414.880609,428.868 422.835609,428.868 C429.188609,428.868 435.559609,426.726 440.793609,422.311 C452.623609,412.381 454.150609,394.758 444.221609,382.948 C412.216609,344.852 365.438609,323 315.886609,323 Z" id="Path"></path>
        </g>
    </g>
</svg>
